<svg width="114" height="20" viewBox="0 0 114 20" fill="none" xmlns="http://www.w3.org/2000/svg">
<path d="M10.7498 2.16719L12.6664 6.33385C12.7498 6.58385 12.9998 6.75052 13.2498 6.83385L17.5831 7.50052C18.3331 7.50052 18.5831 8.33385 18.0831 8.83385L14.9164 12.0839C14.7498 12.2505 14.6664 12.5839 14.6664 12.8339L15.4164 17.3339C15.4998 18.0005 14.8331 18.5839 14.2498 18.2505L10.3331 16.0839C10.0831 15.9172 9.8331 15.9172 9.5831 16.0839L5.66643 18.2505C5.0831 18.5839 4.3331 18.0839 4.49976 17.3339L5.24977 12.8339C5.3331 12.5839 5.16643 12.2505 4.99976 12.0839L1.8331 8.83385C1.41643 8.33385 1.66643 7.50052 2.3331 7.41719L6.66643 6.75052C6.91643 6.75052 7.16643 6.50052 7.24976 6.25052L9.16643 2.08385C9.5831 1.50052 10.4164 1.50052 10.7498 2.16719Z" fill="#3B48D2"/>
<path d="M57.4163 2.16719L59.3329 6.33385C59.4163 6.58385 59.6663 6.75052 59.9163 6.83385L64.2496 7.50052C64.9996 7.50052 65.2496 8.33385 64.7496 8.83385L61.5829 12.0839C61.4163 12.2505 61.3329 12.5839 61.3329 12.8339L62.0829 17.3339C62.1663 18.0005 61.4996 18.5839 60.9163 18.2505L56.9996 16.0839C56.7496 15.9172 56.4996 15.9172 56.2496 16.0839L52.3329 18.2505C51.7496 18.5839 50.9996 18.0839 51.1663 17.3339L51.9163 12.8339C51.9996 12.5839 51.8329 12.2505 51.6663 12.0839L48.4996 8.83385C48.0829 8.33385 48.3329 7.50052 48.9996 7.41719L53.3329 6.75052C53.5829 6.75052 53.8329 6.50052 53.9163 6.25052L55.8329 2.08385C56.2496 1.50052 57.0829 1.50052 57.4163 2.16719Z" fill="#3B48D2"/>
<path d="M34.0833 2.16719L35.9999 6.33385C36.0833 6.58385 36.3333 6.75052 36.5833 6.83385L40.9166 7.50052C41.6666 7.50052 41.9166 8.33385 41.4166 8.83385L38.2499 12.0839C38.0833 12.2505 37.9999 12.5839 37.9999 12.8339L38.7499 17.3339C38.8333 18.0005 38.1666 18.5839 37.5833 18.2505L33.6666 16.0839C33.4166 15.9172 33.1666 15.9172 32.9166 16.0839L28.9999 18.2505C28.4166 18.5839 27.6666 18.0839 27.8333 17.3339L28.5833 12.8339C28.6666 12.5839 28.4999 12.2505 28.3333 12.0839L25.1666 8.83385C24.7499 8.33385 24.9999 7.50052 25.6666 7.41719L29.9999 6.75052C30.2499 6.75052 30.4999 6.50052 30.5833 6.25052L32.4999 2.08385C32.9166 1.50052 33.7499 1.50052 34.0833 2.16719Z" fill="#3B48D2"/>
<path d="M80.7498 2.16719L82.6664 6.33385C82.7498 6.58385 82.9998 6.75052 83.2498 6.83385L87.5831 7.50052C88.3331 7.50052 88.5831 8.33385 88.0831 8.83385L84.9164 12.0839C84.7498 12.2505 84.6664 12.5839 84.6664 12.8339L85.4164 17.3339C85.4998 18.0005 84.8331 18.5839 84.2498 18.2505L80.3331 16.0839C80.0831 15.9172 79.8331 15.9172 79.5831 16.0839L75.6664 18.2505C75.0831 18.5839 74.3331 18.0839 74.4998 17.3339L75.2498 12.8339C75.3331 12.5839 75.1664 12.2505 74.9998 12.0839L71.8331 8.83385C71.4164 8.33385 71.6664 7.50052 72.3331 7.41719L76.6664 6.75052C76.9164 6.75052 77.1664 6.50052 77.2498 6.25052L79.1664 2.08385C79.5831 1.50052 80.4164 1.50052 80.7498 2.16719Z" fill="#3B48D2"/>
<path d="M104.083 2.16719L106 6.33385C106.083 6.58385 106.333 6.75052 106.583 6.83385L110.917 7.50052C111.667 7.50052 111.917 8.33385 111.417 8.83385L108.25 12.0839C108.083 12.2505 108 12.5839 108 12.8339L108.75 17.3339C108.833 18.0005 108.167 18.5839 107.583 18.2505L103.667 16.0839C103.417 15.9172 103.167 15.9172 102.917 16.0839L98.9999 18.2505C98.4166 18.5839 97.6666 18.0839 97.8333 17.3339L98.5833 12.8339C98.6666 12.5839 98.4999 12.2505 98.3333 12.0839L95.1666 8.83385C94.7499 8.33385 94.9999 7.50052 95.6666 7.41719L99.9999 6.75052C100.25 6.75052 100.5 6.50052 100.583 6.25052L102.5 2.08385C102.917 1.50052 103.75 1.50052 104.083 2.16719Z" fill="#3B48D2"/>
</svg>
