<?xml version="1.0" encoding="UTF-8"?>
<svg xmlns="http://www.w3.org/2000/svg" width="72" height="48" viewBox="0 0 72 48" fill="none">
  <g id="ApplePay">
    <rect width="72" height="48" fill="white"></rect>
    <rect id="Rectangle" width="72" height="48" fill="white"></rect>
    <path id="XMLID_34_" fill-rule="evenodd" clip-rule="evenodd" d="M21.8199 17.9119C21.2962 18.5176 20.4582 18.9954 19.6203 18.9271C19.5155 18.1082 19.9258 17.238 20.4059 16.7006C20.9296 16.0778 21.846 15.6342 22.588 15.6001C22.6752 16.4532 22.3348 17.2892 21.8199 17.9119ZM22.5792 19.0892C21.841 19.0477 21.1675 19.3062 20.6234 19.515C20.2733 19.6493 19.9768 19.7631 19.7512 19.7631C19.4981 19.7631 19.1894 19.6433 18.8427 19.5087C18.3885 19.3323 17.8693 19.1307 17.3247 19.1404C16.0765 19.1574 14.9157 19.8484 14.2785 20.9489C12.9692 23.1499 13.9381 26.4086 15.2037 28.2001C15.8234 29.0873 16.5653 30.0598 17.5429 30.0257C17.973 30.0098 18.2824 29.8815 18.6025 29.7487C18.9712 29.5959 19.3541 29.4371 19.952 29.4371C20.5291 29.4371 20.8953 29.5917 21.2468 29.7402C21.581 29.8814 21.902 30.0169 22.3785 30.0086C23.391 29.9916 24.0282 29.1214 24.6479 28.2342C25.3167 27.282 25.6105 26.3527 25.6551 26.2117L25.6604 26.1954C25.6593 26.1943 25.651 26.1906 25.6365 26.1841C25.4129 26.0841 23.7041 25.3195 23.6877 23.2693C23.6713 21.5484 25.0431 20.6765 25.259 20.5393L25.2591 20.5393L25.2591 20.5393L25.2593 20.5391C25.2723 20.5309 25.2811 20.5253 25.2851 20.5224C24.4122 19.2598 23.0506 19.1233 22.5792 19.0892ZM29.5882 29.9148V16.6153H34.6943C37.3303 16.6153 39.172 18.3897 39.172 20.983C39.172 23.5764 37.2954 25.3679 34.6245 25.3679H31.7005V29.9148H29.5882ZM31.7005 18.3555H34.1357C35.9687 18.3555 37.0161 19.311 37.0161 20.9916C37.0161 22.6721 35.9687 23.6361 34.127 23.6361H31.7005V18.3555ZM46.146 28.3195C45.5874 29.3603 44.3567 30.0172 43.03 30.0172C41.0661 30.0172 39.6957 28.874 39.6957 27.1508C39.6957 25.4446 41.0224 24.4636 43.4751 24.3186L46.1111 24.165V23.4314C46.1111 22.348 45.3867 21.7593 44.0949 21.7593C43.03 21.7593 42.2532 22.2968 42.096 23.1157H40.1932C40.2543 21.3925 41.9127 20.1385 44.156 20.1385C46.5737 20.1385 48.1449 21.3755 48.1449 23.2949V29.9148H46.1897V28.3195H46.146ZM43.5973 28.439C42.4714 28.439 41.7556 27.91 41.7556 27.0996C41.7556 26.2636 42.4452 25.7774 43.7632 25.7006L46.1111 25.5556V26.3063C46.1111 27.5518 45.0288 28.439 43.5973 28.439ZM54.6301 30.4352C53.7834 32.7641 52.8146 33.5319 50.7547 33.5319C50.5976 33.5319 50.0738 33.5148 49.9516 33.4807V31.8854C50.0826 31.9025 50.4055 31.9195 50.5714 31.9195C51.5053 31.9195 52.029 31.5356 52.352 30.5375L52.544 29.9489L48.9653 20.2664H51.1736L53.6612 28.1233H53.7049L56.1925 20.2664H58.3397L54.6301 30.4352Z" fill="black"></path>
  </g>
</svg>
