<?xml version="1.0" encoding="UTF-8"?>
<svg xmlns="http://www.w3.org/2000/svg" width="70" height="48" viewBox="0 0 70 48" fill="none">
  <g id="Payment Method/Bitpay">
    <rect id="BASE" width="70" height="48" fill="white"></rect>
    <path id="Bitpay" fill-rule="evenodd" clip-rule="evenodd" d="M14.2795 27.5331C13.8966 27.7456 13.489 27.8515 13.0569 27.8515H12.7235C12.6369 27.8515 12.5132 27.8443 12.1559 27.7811L13.3638 22.6419C13.586 22.4422 13.8257 22.3126 14.1036 22.2499C14.3815 22.1875 14.5605 22.1706 14.7335 22.1706C15.2643 22.1706 15.675 22.3247 15.8727 22.6621C16.0701 22.9992 16.1691 23.4676 16.1691 24.0671C16.1691 24.5543 16.0886 25.0227 15.9283 25.4723C15.7676 25.9219 15.5485 26.3246 15.2707 26.6807C14.9928 27.0366 14.6622 27.3209 14.2795 27.5331ZM17.0028 20.1516C16.5702 19.9394 16.058 19.8331 15.4651 19.8331C15.1809 19.8331 14.9154 19.8644 14.6686 19.9268C14.4214 19.9895 14.1885 20.0703 13.9417 20.1826L15.0762 15.3555L12.2048 15.8051L9 29.4253C9.35808 29.6003 9.7377 29.7376 10.1393 29.8374C10.5405 29.9373 10.9202 30.0121 11.2784 30.0622C11.6365 30.112 11.9547 30.1401 12.2326 30.1466C12.5105 30.1527 12.705 30.1559 12.8161 30.1559C13.6804 30.1559 14.4834 29.9902 15.2243 29.6593C15.9653 29.3286 16.6073 28.879 17.1509 28.3106C17.6943 27.7423 18.1234 27.074 18.4384 26.3059C18.7534 25.5378 18.9108 24.7228 18.9108 23.861C18.9108 23.299 18.8427 22.7744 18.7069 22.2874C18.5709 21.8001 18.361 21.3757 18.0771 21.0133C17.7929 20.6512 17.4348 20.364 17.0028 20.1516ZM24.5973 18.6308L25.0192 16.836H22.2685L21.8466 18.6308H24.5973ZM27.7424 27.6236C27.9446 27.7262 28.2232 27.7771 28.5776 27.7771C28.8814 27.7771 29.1756 27.7484 29.4604 27.6908C29.6466 27.6531 29.8399 27.6087 30.0323 27.5423L29.4594 29.9657C29.4144 29.9768 29.3448 29.9938 29.2991 30.0044C28.8559 30.1067 28.3308 30.1579 27.7233 30.1579C26.8499 30.1579 26.1727 30.0266 25.6919 29.7644C25.2107 29.5021 24.869 29.1437 24.6666 28.6891C24.464 28.2349 24.3753 27.7133 24.4009 27.1243C24.4261 26.5357 24.5148 25.9146 24.6666 25.2618L26.5272 17.3129L29.4699 16.852L28.7484 19.8282H31.9L31.3305 22.1706H28.198L27.3626 25.7035C27.2866 25.9981 27.2392 26.2732 27.2202 26.5291C27.2013 26.7852 27.2326 27.0061 27.3152 27.1915C27.3973 27.3772 27.5396 27.5212 27.7424 27.6236ZM62 19.8314H59.2494L57.6495 26.6387H57.6523L57.4325 27.5751C57.279 27.6187 57.1262 27.6579 56.9745 27.6886C56.6897 27.7462 56.3955 27.7751 56.0917 27.7751C55.7371 27.7751 55.4587 27.724 55.2563 27.6214C55.0537 27.5191 54.9114 27.3752 54.8291 27.1894C54.7467 27.004 54.7152 26.7832 54.7342 26.5269C54.7533 26.2711 54.8007 25.996 54.8767 25.7013L55.7119 22.1685L56.2625 19.826L56.2627 19.8253H53.4526L52.1807 25.2598C52.0289 25.9126 51.9402 26.5336 51.915 27.1223C51.8894 27.7111 51.9781 28.2329 52.1807 28.687C52.383 29.1415 52.7247 29.5001 53.206 29.7623C53.6867 30.0244 54.364 30.1559 55.2373 30.1559C55.8449 30.1559 56.37 30.1047 56.8132 30.0022C56.8311 29.9981 56.8483 29.9937 56.8658 29.9893L56.8645 29.9944C56.7414 30.5551 56.492 31.0098 56.0918 31.3647C55.6912 31.7199 55.0968 31.8975 54.3086 31.8975C53.9721 31.8975 53.6663 31.8773 53.3893 31.8385L52.8479 34.142C53.2141 34.19 53.62 34.2148 54.0683 34.2148C54.9059 34.2148 55.6392 34.118 56.2674 33.925C56.8957 33.7318 57.4344 33.4391 57.8842 33.0466C58.3337 32.6542 58.7095 32.1618 59.0114 31.5705C59.3131 30.9785 59.5564 30.278 59.7413 29.468L61.6446 21.3761L61.6377 21.3732L62 19.8314ZM19.1334 30.1579L21.5617 19.8254H24.3124L21.8841 30.1579H19.1334ZM48.5085 22.1706C47.2259 22.1706 46.981 22.1706 46.4555 22.4463C46.0824 22.6418 45.7736 22.9359 45.5024 23.2789C45.2309 23.6221 45.0183 24.0181 44.8642 24.4671C44.7097 24.9164 44.6328 25.3841 44.6328 25.8706C44.6328 26.4694 44.7314 26.9437 44.929 27.2928C45.126 27.6422 45.4901 27.8167 46.0206 27.8167C46.3042 27.8167 46.5601 27.7607 46.7885 27.6483C47.0166 27.5361 47.2603 27.3489 47.5193 27.0869C47.5439 26.7753 47.5841 26.4478 47.6397 26.1045C47.6903 25.791 47.7535 25.4984 47.8112 25.2309L47.8273 25.1564L48.5085 22.1706ZM50.4614 25.646C50.2885 26.3573 50.2392 27.0714 50.3133 27.7887C50.3874 28.5063 50.6587 29.6056 50.9233 30.1559H48.2615C48.0192 29.7414 47.9656 29.4911 47.9285 29.318C47.9159 29.2588 47.9051 29.2086 47.8894 29.1641C47.5439 29.4512 47.1615 29.6881 46.7423 29.8752C46.3228 30.0622 45.854 30.1559 45.3359 30.1559C44.7191 30.1559 44.1917 30.0465 43.754 29.8285C43.3159 29.6102 42.9582 29.317 42.6808 28.9489C42.4031 28.5812 42.2025 28.1507 42.0795 27.6578C41.9559 27.165 41.8944 26.6379 41.8944 26.0765C41.8944 25.2157 42.0452 24.4048 42.3477 23.6439C42.6498 22.883 43.0693 22.2186 43.606 21.6508C44.1424 21.0832 45.4375 19.8315 47.5626 19.8315L51.8299 19.8314L50.4614 25.646ZM34.3675 27.7815C34.5786 27.8319 34.8393 27.8569 35.15 27.8569C35.6343 27.8569 36.0749 27.7659 36.4726 27.5838C36.8698 27.4018 37.2083 27.1475 37.4877 26.8208C37.7672 26.4943 37.9842 26.102 38.1397 25.6434C38.2947 25.185 38.3725 24.6797 38.3725 24.1269C38.3725 23.587 38.2544 23.1284 38.0186 22.7517C37.7826 22.3748 37.3688 22.1746 36.7852 22.1722C36.3771 22.1706 35.6995 22.1706 35.6995 22.1706L34.3675 27.7815ZM41.1294 23.9196C41.1294 24.8366 40.9804 25.6749 40.6823 26.4346C40.3844 27.1946 39.9713 27.8508 39.4437 28.4032C38.9156 28.956 38.2823 29.3861 37.5436 29.6938C36.8046 30.0013 36.0005 30.1552 35.1312 30.1552C34.7089 30.1552 34.2866 30.1176 33.8646 30.0422L33.0263 33.4519H30.2694L33.4696 19.8317C33.8038 19.8315 35.1673 19.8316 36.1857 19.8317L37.1431 19.8317C37.8384 19.8317 38.4377 19.9385 38.9406 20.1519C39.4437 20.3656 39.8563 20.6576 40.1794 21.0279C40.5021 21.3985 40.7411 21.8318 40.8965 22.3277C41.0516 22.8241 41.1294 23.3545 41.1294 23.9196Z" fill="#002855"></path>
  </g>
</svg>
