<?xml version="1.0" encoding="UTF-8"?>
<svg xmlns="http://www.w3.org/2000/svg" width="72" height="48" viewBox="0 0 72 48" fill="none">
  <g id="GooglePay">
    <rect width="72" height="48" fill="white"></rect>
    <rect id="Rectangle" width="72" height="48" fill="white"></rect>
    <path id="Shape" fill-rule="evenodd" clip-rule="evenodd" d="M34.6561 28.9417V23.5284V23.5273H37.6855C38.9345 23.528 39.9842 23.1486 40.8345 22.3892C41.6939 21.6684 42.1744 20.632 42.1499 19.5518C42.1669 18.4776 41.6873 17.449 40.8345 16.7305C39.9916 15.9669 38.858 15.5502 37.6855 15.5732H32.8225V28.9417H34.6561ZM34.6561 21.8857V17.219V17.218H37.7311C38.4164 17.1999 39.0771 17.4582 39.5453 17.9273C40.0164 18.3563 40.2822 18.9455 40.2822 19.5609C40.2822 20.1763 40.0164 20.7655 39.5453 21.1945C39.0713 21.6537 38.4127 21.9046 37.7311 21.8857H34.6561Z" fill="#5F6368"></path>
    <path id="Shape_2" fill-rule="evenodd" clip-rule="evenodd" d="M49.5846 20.5142C48.8003 19.8358 47.7305 19.4966 46.3752 19.4966C44.6343 19.4966 43.3196 20.0939 42.4313 21.2886L44.0462 22.2411C44.643 21.4319 45.4535 21.0272 46.4777 21.0272C47.1307 21.0201 47.7627 21.2437 48.2475 21.6534C48.731 22.0277 49.0091 22.5859 49.0049 23.1734V23.5659C48.3003 23.1926 47.4036 23.0059 46.3149 23.0059C45.0393 23.0073 44.0196 23.2875 43.2558 23.8464C42.492 24.4054 42.1101 25.1581 42.1101 26.1046C42.0935 26.9664 42.4926 27.7893 43.1966 28.3446C43.9209 28.9419 44.821 29.2406 45.8969 29.2406C47.1573 29.2406 48.1671 28.7179 48.9263 27.6726H49.006V28.9419H50.7599V23.3046C50.7607 22.1227 50.3689 21.1926 49.5846 20.5142ZM44.6111 27.2619C44.227 27.0026 44.0004 26.5854 44.0029 26.1419C44.0029 25.6438 44.2524 25.2289 44.7546 24.8875C45.2519 24.5512 45.873 24.383 46.6178 24.383C47.6405 24.383 48.4377 24.5963 49.0095 25.023C49.0095 25.7441 48.7058 26.3723 48.0983 26.9078C47.5513 27.4203 46.8096 27.7087 46.0358 27.7099C45.52 27.719 45.0166 27.5607 44.6111 27.2619Z" fill="#5F6368"></path>
    <path id="Path" fill-rule="evenodd" clip-rule="evenodd" d="M60.8276 19.7954L54.705 32.9741H52.8122L55.0842 28.3629L51.0583 19.7954H53.0513L55.9612 26.3661H56.001L58.8311 19.7954H60.8276Z" fill="#5F6368"></path>
    <path id="Path_2" fill-rule="evenodd" clip-rule="evenodd" d="M27.2466 22.3614C27.2473 21.838 27.2 21.3156 27.1054 20.7998H19.3724V23.7577H23.8015C23.6183 24.7123 23.0267 25.5554 22.1638 26.0915V28.0115H24.8071C26.3548 26.675 27.2466 24.6985 27.2466 22.3614Z" fill="#4285F4"></path>
    <path id="Path_3" fill-rule="evenodd" clip-rule="evenodd" d="M19.3724 29.8669C21.5852 29.8669 23.4484 29.1863 24.8071 28.013L22.1638 26.093C21.4281 26.5602 20.4805 26.8269 19.3724 26.8269C17.2336 26.8269 15.4182 25.4765 14.769 23.6567H12.046V25.6354C13.4378 28.2295 16.2726 29.8667 19.3724 29.8669Z" fill="#34A853"></path>
    <path id="Path_4" fill-rule="evenodd" clip-rule="evenodd" d="M14.769 23.6567C14.4258 22.7031 14.4258 21.6705 14.769 20.7169V18.7383H12.0459C10.8817 20.908 10.8817 23.4656 12.0459 25.6353L14.769 23.6567Z" fill="#FBBC04"></path>
    <path id="Path_5" fill-rule="evenodd" clip-rule="evenodd" d="M19.3724 17.5469C20.5418 17.529 21.6717 17.9428 22.518 18.6989L24.8584 16.5069C23.3743 15.2013 21.4083 14.4846 19.3724 14.5069C16.2726 14.507 13.4378 16.1442 12.046 18.7383L14.769 20.717C15.4182 18.8973 17.2336 17.5469 19.3724 17.5469Z" fill="#EA4335"></path>
  </g>
</svg>
