<?xml version="1.0" encoding="UTF-8"?>
<svg xmlns="http://www.w3.org/2000/svg" width="72" height="48" viewBox="0 0 72 48" fill="none">
  <g id="Klarna">
    <rect width="72" height="48" fill="white"></rect>
    <rect id="Rectangle" width="72" height="48" fill="white"></rect>
    <path id="Combined Shape" fill-rule="evenodd" clip-rule="evenodd" d="M9.20235 30.9555H6.20691V18H9.20235V30.9555ZM16.6838 18H13.7525C13.7525 20.3842 12.6479 22.5724 10.7219 24.0041L9.56056 24.8671L14.0604 30.9561H17.7602L13.6197 25.3533C15.5824 23.4139 16.6838 20.8048 16.6838 18ZM21.4622 30.952H18.6333V18.0025H21.4622V30.952ZM30.0124 21.9943V22.5673C29.2488 22.0505 28.3273 21.7467 27.3333 21.7467C24.7027 21.7467 22.5701 23.8629 22.5701 26.4734C22.5701 29.0838 24.7027 31.2 27.3333 31.2C28.3273 31.2 29.2488 30.8962 30.0124 30.3795V30.952H32.7151V21.9943H30.0124ZM30.0034 26.4734C30.0034 27.7462 28.907 28.7781 27.5544 28.7781C26.202 28.7781 25.1055 27.7462 25.1055 26.4734C25.1055 25.2005 26.202 24.1689 27.5544 24.1689C28.907 24.1689 30.0034 25.2005 30.0034 26.4734ZM58.5254 22.5673V21.9943H61.228V30.952H58.5254V30.3795C57.7618 30.8962 56.8403 31.2 55.8462 31.2C53.2155 31.2 51.083 29.0838 51.083 26.4734C51.083 23.8629 53.2155 21.7467 55.8462 21.7467C56.8403 21.7467 57.7618 22.0505 58.5254 22.5673ZM56.0674 28.7781C57.42 28.7781 58.5163 27.7462 58.5163 26.4734C58.5163 25.2005 57.42 24.1689 56.0674 24.1689C54.7148 24.1689 53.6185 25.2005 53.6185 26.4734C53.6185 27.7462 54.7148 28.7781 56.0674 28.7781ZM62.4011 29.4579C62.4011 28.5283 63.1604 27.7748 64.097 27.7748C65.0337 27.7748 65.7931 28.5283 65.7931 29.4579C65.7931 30.3872 65.0337 31.1408 64.097 31.1408C63.1604 31.1408 62.4011 30.3872 62.4011 29.4579ZM46.2804 21.7534C45.2008 21.7534 44.1791 22.086 43.4959 23.0036V21.9948H40.8049V30.952H43.529V26.2447C43.529 24.8825 44.4495 24.2155 45.5578 24.2155C46.7456 24.2155 47.4285 24.9196 47.4285 26.2262V30.952H50.128V25.2556C50.128 23.171 48.4577 21.7534 46.2804 21.7534ZM36.8962 21.9944V23.1611C37.4379 22.4613 38.4474 21.995 39.545 21.995V24.6015L39.5387 24.6013L39.5299 24.6009C39.5243 24.6006 39.5187 24.6003 39.5129 24.6003C38.4435 24.6003 36.9023 25.3588 36.9023 26.7698V30.952H34.129V21.9944H36.8962Z" fill="#17120F"></path>
  </g>
</svg>
