<?xml version="1.0" encoding="UTF-8"?>
<svg xmlns="http://www.w3.org/2000/svg" width="46" height="29" viewBox="0 0 46 29" fill="none">
  <g id="Maestro">
    <path id="Left" d="M28.1899 14.2542C28.1899 21.879 22.0796 28.0602 14.5423 28.0602C7.00499 28.0602 0.894775 21.879 0.894775 14.2542C0.894775 6.62939 7.00499 0.448242 14.5423 0.448242C22.0796 0.448242 28.1899 6.62939 28.1899 14.2542Z" fill="#ED0006"></path>
    <path id="Right" d="M45.8948 14.2542C45.8948 21.879 39.7845 28.0602 32.2472 28.0602C24.7099 28.0602 18.5997 21.879 18.5997 14.2542C18.5997 6.62939 24.7099 0.448242 32.2472 0.448242C39.7845 0.448242 45.8948 6.62939 45.8948 14.2542Z" fill="#0099DF"></path>
    <path id="Middle" fill-rule="evenodd" clip-rule="evenodd" d="M23.3948 3.74609C26.3292 6.27836 28.1898 10.0463 28.1898 14.254C28.1898 18.4616 26.3292 22.2295 23.3948 24.7618C20.4605 22.2295 18.5998 18.4616 18.5998 14.254C18.5998 10.0463 20.4605 6.27836 23.3948 3.74609Z" fill="#6C6BBD"></path>
  </g>
</svg>
