<?xml version="1.0" encoding="UTF-8"?>
<svg xmlns="http://www.w3.org/2000/svg" width="40" height="36" viewBox="0 0 40 36" fill="none">
  <g id="PayPal">
    <path id="Vector" fill-rule="evenodd" clip-rule="evenodd" d="M4.80001 24.4824H1.68878C1.47588 24.4824 1.2948 24.6372 1.2616 24.8473L0.00326376 32.8254C-0.0217468 32.9829 0.10017 33.1248 0.259855 33.1248H1.74519C1.95809 33.1248 2.13916 32.97 2.17236 32.7595L2.51175 30.6077C2.54449 30.397 2.72601 30.2424 2.93847 30.2424H3.92338C5.97286 30.2424 7.1556 29.2506 7.46465 27.2854C7.60381 26.4256 7.47054 25.75 7.06781 25.2767C6.6257 24.7574 5.84128 24.4824 4.80001 24.4824ZM5.15896 27.3963C4.98885 28.5127 4.13584 28.5127 3.31106 28.5127H2.84157L3.17094 26.4277C3.19049 26.3018 3.29967 26.209 3.42706 26.209H3.64224C4.20407 26.209 4.73412 26.209 5.00801 26.5292C5.17117 26.7203 5.22128 27.0041 5.15896 27.3963ZM14.1002 27.3605H12.6103C12.4834 27.3605 12.3737 27.4534 12.3541 27.5795L12.2882 27.9961L12.184 27.8452C11.8615 27.377 11.1423 27.2205 10.4244 27.2205C8.77792 27.2205 7.37181 28.4675 7.09791 30.2168C6.9556 31.0892 7.15791 31.9235 7.65286 32.5054C8.10697 33.0403 8.75665 33.2633 9.5295 33.2633C10.856 33.2633 11.5918 32.4102 11.5918 32.4102L11.5253 32.8243C11.5002 32.9827 11.6221 33.1245 11.7809 33.1245H13.123C13.3365 33.1245 13.5165 32.9698 13.5501 32.7593L14.3554 27.6599C14.3809 27.5031 14.2594 27.3605 14.1002 27.3605ZM12.0234 30.2603C11.8796 31.1115 11.204 31.6829 10.3426 31.6829C9.90992 31.6829 9.56402 31.5441 9.34213 31.2812C9.12192 31.0201 9.03813 30.6483 9.10823 30.2344C9.24255 29.3904 9.9295 28.8005 10.7779 28.8005C11.2009 28.8005 11.5449 28.941 11.7714 29.2062C11.9983 29.4742 12.0885 29.8481 12.0234 30.2603ZM20.5379 27.3603H22.0352C22.2449 27.3603 22.3672 27.5955 22.2481 27.7675L17.2685 34.9553C17.1878 35.0717 17.055 35.141 16.9131 35.141H15.4177C15.2072 35.141 15.0842 34.9039 15.2061 34.7315L16.7567 32.5429L15.1076 27.7033C15.0506 27.5351 15.1748 27.3603 15.3537 27.3603H16.8249C17.016 27.3603 17.1847 27.4858 17.2398 27.6687L18.115 30.5917L20.1801 27.55C20.2609 27.4313 20.3952 27.3603 20.5379 27.3603Z" fill="#253B80"></path>
    <path id="Vector_2" fill-rule="evenodd" clip-rule="evenodd" d="M36.7709 32.8248L38.0478 24.7008C38.0673 24.5747 38.1766 24.4819 38.3035 24.4814H39.741C39.8998 24.4814 40.0217 24.6238 39.9966 24.7812L38.7374 32.7589C38.7046 32.9695 38.5235 33.1242 38.3103 33.1242H37.0265C36.8677 33.1242 36.7459 32.9823 36.7709 32.8248ZM26.9921 24.4819H23.8803C23.6679 24.4819 23.4869 24.6366 23.4536 24.8467L22.1953 32.8248C22.1702 32.9823 22.2921 33.1242 22.4511 33.1242H24.0477C24.1961 33.1242 24.3231 33.016 24.3462 32.8686L24.7033 30.6071C24.7361 30.3964 24.9176 30.2419 25.13 30.2419H26.1145C28.1644 30.2419 29.3469 29.2501 29.6562 27.2848C29.7957 26.425 29.6616 25.7494 29.2591 25.2762C28.8172 24.7568 28.0334 24.4819 26.9921 24.4819ZM27.3511 27.3958C27.1814 28.5122 26.3284 28.5122 25.5031 28.5122H25.034L25.3639 26.4271C25.3835 26.3012 25.4917 26.2084 25.6195 26.2084H25.8347C26.3961 26.2084 26.9267 26.2084 27.2004 26.5286C27.3637 26.7198 27.4134 27.0036 27.3511 27.3958ZM36.2915 27.36H34.8027C34.6747 27.36 34.5661 27.4528 34.5469 27.5789L34.481 27.9956L34.3764 27.8446C34.0538 27.3764 33.3351 27.22 32.6172 27.22C30.9707 27.22 29.565 28.4669 29.2911 30.2162C29.1492 31.0886 29.3507 31.9229 29.8456 32.5048C30.3006 33.0398 30.9494 33.2627 31.7223 33.2627C33.0488 33.2627 33.7844 32.4097 33.7844 32.4097L33.7181 32.8238C33.693 32.9821 33.8149 33.124 33.9747 33.124H35.3162C35.5286 33.124 35.7096 32.9693 35.7429 32.7587L36.5486 27.6593C36.5732 27.5025 36.4513 27.36 36.2915 27.36ZM34.2149 30.2598C34.072 31.1109 33.3955 31.6823 32.5338 31.6823C32.1021 31.6823 31.7555 31.5436 31.5334 31.2806C31.3132 31.0196 31.2305 30.6478 31.2997 30.2339C31.4347 29.3899 32.1208 28.8 32.9692 28.8C33.3924 28.8 33.7362 28.9404 33.9629 29.2057C34.1907 29.4737 34.2808 29.8476 34.2149 30.2598Z" fill="#179BD7"></path>
    <path id="Vector_3" d="M16.314 21.6276L16.6966 19.1981L15.8446 19.1784H11.7761L14.6035 1.25069C14.6121 1.19656 14.6408 1.1461 14.6824 1.11027C14.7241 1.07444 14.7776 1.05469 14.8332 1.05469H21.6932C23.9707 1.05469 25.5423 1.5286 26.3629 2.464C26.7475 2.90282 26.9926 3.36137 27.1111 3.866C27.2353 4.39552 27.2376 5.02813 27.1162 5.79971L27.1073 5.85602V6.3504L27.4922 6.56836C27.8162 6.74022 28.0734 6.93695 28.2709 7.16222C28.6002 7.5374 28.813 8.01424 28.9029 8.57957C28.9957 9.161 28.965 9.85285 28.813 10.6361C28.6374 11.5372 28.3536 12.3219 27.9705 12.964C27.6178 13.5557 27.1688 14.0463 26.6357 14.4268C26.1267 14.788 25.5218 15.0623 24.838 15.2379C24.1753 15.4103 23.4199 15.4975 22.5913 15.4975H22.0574C21.6757 15.4975 21.3048 15.635 21.0138 15.8815C20.722 16.1331 20.5288 16.4767 20.4696 16.8527L20.4294 17.0714L19.7536 21.3533L19.7229 21.5106C19.7149 21.5605 19.701 21.5853 19.6806 21.6021C19.6622 21.6173 19.6359 21.6276 19.6102 21.6276H16.314Z" fill="#253B80"></path>
    <path id="Vector_4" d="M27.8564 5.91406C27.836 6.04497 27.8126 6.1788 27.7863 6.3163C26.8814 10.9611 23.7865 12.5657 19.8334 12.5657H17.8208C17.3374 12.5657 16.93 12.9168 16.8547 13.3936L15.8241 19.929L15.5323 21.7815C15.4833 22.0945 15.7248 22.3768 16.0406 22.3768H19.6105C20.0332 22.3768 20.3922 22.0697 20.4587 21.6528L20.4938 21.4714L21.166 17.2061L21.2092 16.9722C21.2749 16.5539 21.6347 16.2467 22.0574 16.2467H22.5913C26.0498 16.2467 28.7574 14.8425 29.5488 10.779C29.8793 9.08154 29.7082 7.66419 28.8334 6.66735C28.5688 6.36676 28.2404 6.11737 27.8564 5.91406Z" fill="#179BD7"></path>
    <path id="Vector_5" d="M26.9096 5.53663C26.7715 5.4964 26.6288 5.45983 26.4825 5.42692C26.3355 5.39476 26.1848 5.36623 26.0298 5.34137C25.4871 5.2536 24.8926 5.21191 24.2555 5.21191H18.8787C18.7463 5.21191 18.6206 5.24189 18.5079 5.29602C18.2599 5.41522 18.0757 5.65 18.0311 5.93741L16.8871 13.1822L16.8542 13.3936C16.9296 12.9167 17.337 12.5657 17.8204 12.5657H19.833C23.7861 12.5657 26.8812 10.9603 27.7859 6.31625C27.8128 6.17876 27.8355 6.04493 27.856 5.91402C27.6271 5.79261 27.3791 5.68876 27.1122 5.60025C27.0465 5.57832 26.9785 5.55712 26.9096 5.53663Z" fill="#222D65"></path>
    <path id="Vector_6" d="M18.0311 5.93733C18.0758 5.6499 18.2602 5.41514 18.508 5.29665C18.6215 5.24253 18.7465 5.21255 18.8787 5.21255H24.2558C24.8928 5.21255 25.4874 5.25423 26.0299 5.342C26.185 5.36686 26.3358 5.39539 26.4827 5.42756C26.629 5.46048 26.7716 5.49705 26.9099 5.53726C26.9785 5.55775 27.0465 5.57895 27.1131 5.60017C27.38 5.68865 27.628 5.79324 27.8568 5.91392C28.1261 4.19743 27.8547 3.02873 26.9267 1.97046C25.9036 0.805421 24.0568 0.306641 21.6939 0.306641H14.8337C14.3509 0.306641 13.9393 0.657673 13.8646 1.13525L11.0073 19.2472C10.9509 19.6055 11.2273 19.9289 11.5886 19.9289H15.824L16.8873 13.1821L18.0311 5.93733Z" fill="#253B80"></path>
  </g>
</svg>
